# xmcd CD database file
#
# Track frame offsets:
#	150
#	13457
#	29193
#	42486
#	44398
#	57057
#	74925
#	91294
#	109967
#	127632
#	143620
#	157427
#	169809
#
# Disc length: 2422 seconds
#
# Revision: 0
# Processed by: cddbd v1.5.1PL0 Copyright (c) Steve Scherf et al.
# Submitted via: CDex 1.51
#
DISCID=c509740d
DTITLE=Debbie Adshade - Into Thunder
DYEAR=2005
DGENRE=New Age
TTITLE0=Thank You
TTITLE1=Path with Heart
TTITLE2=Restless Days
TTITLE3=Get Up (Loop)
TTITLE4=Get Up (Ordinary Magic)
TTITLE5=Fly Away
TTITLE6=Old Lovers
TTITLE7=Shine
TTITLE8=Little Gem
TTITLE9=All Bad
TTITLE10=Ring of Fire
TTITLE11=Come Home
TTITLE12=Little Feathers
EXTD=YEAR: 2005
EXTT0=
EXTT1=
EXTT2=
EXTT3=
EXTT4=
EXTT5=
EXTT6=
EXTT7=
EXTT8=
EXTT9=
EXTT10=
EXTT11=
EXTT12=
PLAYORDER=
